<?xml version="1.0" encoding="utf-8"?>
<!-- Generator: Adobe Illustrator 16.0.0, SVG Export Plug-In . SVG Version: 6.00 Build 0)  -->
<!DOCTYPE svg PUBLIC "-//W3C//DTD SVG 1.1//EN" "http://www.w3.org/Graphics/SVG/1.1/DTD/svg11.dtd">
<svg version="1.1"
	 id="Layer_1" xmlns:dc="http://purl.org/dc/elements/1.1/" xmlns:cc="http://creativecommons.org/ns#" xmlns:rdf="http://www.w3.org/1999/02/22-rdf-syntax-ns#" xmlns:svg="http://www.w3.org/2000/svg" xmlns:sodipodi="http://sodipodi.sourceforge.net/DTD/sodipodi-0.dtd" xmlns:inkscape="http://www.inkscape.org/namespaces/inkscape" inkscape:output_extension="org.inkscape.output.svg.inkscape" sodipodi:docname="rit_black_no_bar.svg" inkscape:version="0.46" sodipodi:version="0.32"
	 xmlns="http://www.w3.org/2000/svg" xmlns:xlink="http://www.w3.org/1999/xlink" x="0px" y="0px" width="158.46px" height="52.3px"
	 viewBox="0 0 158.46 52.3" enable-background="new 0 0 158.46 52.3" xml:space="preserve">
<defs>
	
	
		<inkscape:perspective  inkscape:vp_z="612 : 396 : 1" inkscape:vp_x="0 : 396 : 1" sodipodi:type="inkscape:persp3d" inkscape:vp_y="0 : 1000 : 0" id="perspective20" inkscape:persp3d-origin="306 : 264 : 1">
		</inkscape:perspective>
</defs>
<sodipodi:namedview  inkscape:cy="46.553971" inkscape:cx="72.803322" inkscape:zoom="5.33" showgrid="false" pagecolor="#aaaaaa" bordercolor="#666666" borderopacity="1.0" objecttolerance="10.0" gridtolerance="10.0" guidetolerance="10.0" id="base" inkscape:current-layer="Layer_1" inkscape:window-y="-4" inkscape:window-x="-4" inkscape:pageopacity="0.0" inkscape:pageshadow="2" inkscape:window-width="1280" inkscape:window-height="737">
	</sodipodi:namedview>
<g id="g3" transform="matrix(10.573603,0,0,10.573603,-2921.459,-3803.5901)">
	<path id="path5" fill="#FFFFFF" d="M277.643,360.387c0-0.074-0.014-0.202,0.074-0.243c0.061-0.027,0.358-0.007,0.439-0.007
		c0.608,0,0.945,0.419,0.945,1.013c0,0.979-0.614,0.999-1.458,0.999V360.387L277.643,360.387z M278.656,362.216
		c0.668-0.061,1.222-0.432,1.222-1.161c0-0.938-0.776-1.114-1.546-1.114c-0.284,0.007-0.574,0.02-0.857,0.027
		c-0.385-0.007-0.776-0.02-1.161-0.027v0.155c0.216,0,0.5-0.007,0.574,0.23c0.061,0.182,0.061,0.682,0.061,0.898v1.904
		c0,0.216,0,0.716-0.061,0.898c-0.074,0.23-0.358,0.23-0.574,0.23v0.155c0.338-0.007,0.675-0.02,1.013-0.027
		c0.324,0.007,0.641,0.02,0.952,0.027v-0.155c-0.216,0-0.493,0.007-0.574-0.23c-0.061-0.182-0.061-0.682-0.061-0.898v-0.797
		c0.358,0,0.331,0.04,0.554,0.297l1.121,1.391l0.317,0.392c0.169-0.007,0.338-0.02,0.506-0.027c0.203,0.007,0.405,0.02,0.608,0.027
		v-0.155c-0.344-0.054-0.446-0.148-0.662-0.398L278.656,362.216L278.656,362.216z"/>
	<path id="path7" fill="#FFFFFF" d="M283.406,363.128c0,0.216,0,0.716-0.068,0.898c-0.088,0.23-0.365,0.23-0.581,0.23v0.155
		c0.337-0.007,0.682-0.02,1.019-0.027c0.324,0.007,0.655,0.02,0.972,0.027v-0.155c-0.216,0-0.493,0-0.581-0.23
		c-0.067-0.182-0.067-0.682-0.067-0.898v-1.904c0-0.216,0-0.716,0.067-0.898c0.088-0.23,0.365-0.23,0.581-0.23v-0.155
		c-0.337,0.007-0.675,0.02-1.019,0.027c-0.324-0.007-0.648-0.02-0.972-0.027v0.155c0.216,0,0.493,0,0.581,0.23
		c0.068,0.182,0.068,0.682,0.068,0.898V363.128L283.406,363.128z"/>
	<path id="path9" fill="#FFFFFF" d="M291.246,359.941h-4.145v1.053h0.155c0.027-0.803,0.351-0.837,1.019-0.837
		c0.27,0,0.567-0.02,0.567,0.182v3.2c0,0.5-0.095,0.689-0.749,0.716v0.155c0.365-0.007,0.716-0.02,1.074-0.027
		c0.371,0.007,0.749,0.02,1.121,0.027v-0.155c-0.655-0.027-0.75-0.216-0.75-0.716v-3.2c0-0.216,0.405-0.182,0.655-0.182
		c0.635,0,0.891,0.176,0.932,0.837h0.182L291.246,359.941L291.246,359.941z"/>
	<path id="path11" fill="#FFFFFF" d="M281.236,362.182c0-0.148,0.12-0.269,0.269-0.269s0.269,0.12,0.269,0.269
		c0,0.148-0.12,0.269-0.269,0.269C281.356,362.451,281.236,362.33,281.236,362.182L281.236,362.182z"/>
	<path id="path13" fill="#FFFFFF" d="M285.743,362.182c0-0.148,0.12-0.269,0.269-0.269c0.148,0,0.269,0.12,0.269,0.269
		c0,0.148-0.12,0.269-0.269,0.269C285.863,362.451,285.743,362.33,285.743,362.182L285.743,362.182z"/>
</g>
</svg>
